REM DIRINDEX 1\2,1\3,1\4,1\6,1\5\7,1\5\8
REM DIRNAME folder01,folder02,folder03,folder04,folder05,folder06,folder07,folder08
TITLE ""
FILE "DB4500_5th_3B_12.mp3" MP3
  TRACK 01 AUDIO
    TITLE "2:cjc114_2030"
    INDEX 01 00:00:00
  TRACK 02 AUDIO
    TITLE "0:"
    INDEX 01 00:01:03
  TRACK 03 AUDIO
    TITLE "3:cjc114_2031"
    INDEX 01 00:01:32
  TRACK 04 AUDIO
    TITLE "0:"
    INDEX 01 00:02:51
  TRACK 05 AUDIO
    TITLE "4:cjc114_2032"
    INDEX 01 00:03:06
  TRACK 06 AUDIO
    TITLE "0:"
    INDEX 01 00:06:08
  TRACK 07 AUDIO
    TITLE "2:cjc114_2033"
    INDEX 01 00:06:63
  TRACK 08 AUDIO
    TITLE "0:"
    INDEX 01 00:07:72
  TRACK 09 AUDIO
    TITLE "3:cjc114_2034"
    INDEX 01 00:08:24
  TRACK 10 AUDIO
    TITLE "0:"
    INDEX 01 00:09:53
  TRACK 11 AUDIO
    TITLE "4:cjc114_2035"
    INDEX 01 00:10:06
  TRACK 12 AUDIO
    TITLE "0:"
    INDEX 01 00:13:12
  TRACK 13 AUDIO
    TITLE "2:cjc114_2036"
    INDEX 01 00:13:65
  TRACK 14 AUDIO
    TITLE "0:"
    INDEX 01 00:14:64
  TRACK 15 AUDIO
    TITLE "3:cjc114_2037"
    INDEX 01 00:15:19
  TRACK 16 AUDIO
    TITLE "0:"
    INDEX 01 00:16:38
  TRACK 17 AUDIO
    TITLE "4:cjc114_2038"
    INDEX 01 00:16:65
  TRACK 18 AUDIO
    TITLE "0:"
    INDEX 01 00:20:02
  TRACK 19 AUDIO
    TITLE "2:cjc114_2039"
    INDEX 01 00:20:55
  TRACK 20 AUDIO
    TITLE "0:"
    INDEX 01 00:21:72
  TRACK 21 AUDIO
    TITLE "3:cjc114_2040"
    INDEX 01 00:22:27
  TRACK 22 AUDIO
    TITLE "0:"
    INDEX 01 00:23:34
  TRACK 23 AUDIO
    TITLE "4:cjc114_2041"
    INDEX 01 00:23:65
  TRACK 24 AUDIO
    TITLE "0:"
    INDEX 01 00:27:26
  TRACK 25 AUDIO
    TITLE "2:cjc114_2042"
    INDEX 01 00:28:04
  TRACK 26 AUDIO
    TITLE "0:"
    INDEX 01 00:29:15
  TRACK 27 AUDIO
    TITLE "3:cjc114_2043"
    INDEX 01 00:29:42
  TRACK 28 AUDIO
    TITLE "0:"
    INDEX 01 00:30:44
  TRACK 29 AUDIO
    TITLE "4:cjc114_2044"
    INDEX 01 00:30:73
  TRACK 30 AUDIO
    TITLE "0:"
    INDEX 01 00:34:59
  TRACK 31 AUDIO
    TITLE "4:cjc114_2045"
    INDEX 01 00:35:37
  TRACK 32 AUDIO
    TITLE "0:"
    INDEX 01 00:38:26
  TRACK 33 AUDIO
    TITLE "2:cjc114_2046"
    INDEX 01 00:39:00
  TRACK 34 AUDIO
    TITLE "0:"
    INDEX 01 00:40:09
  TRACK 35 AUDIO
    TITLE "3:cjc114_2047"
    INDEX 01 00:40:34
  TRACK 36 AUDIO
    TITLE "0:"
    INDEX 01 00:41:73
  TRACK 37 AUDIO
    TITLE "4:cjc114_2048"
    INDEX 01 00:42:27
  TRACK 38 AUDIO
    TITLE "0:"
    INDEX 01 00:45:47
  TRACK 39 AUDIO
    TITLE "2:cjc114_2049"
    INDEX 01 00:46:27
  TRACK 40 AUDIO
    TITLE "0:"
    INDEX 01 00:47:28
  TRACK 41 AUDIO
    TITLE "3:cjc114_2050"
    INDEX 01 00:47:58
  TRACK 42 AUDIO
    TITLE "0:"
    INDEX 01 00:49:10
  TRACK 43 AUDIO
    TITLE "4:cjc114_2051"
    INDEX 01 00:49:37
  TRACK 44 AUDIO
    TITLE "0:"
    INDEX 01 00:53:35
  TRACK 45 AUDIO
    TITLE "2:cjc114_2052"
    INDEX 01 00:54:15
  TRACK 46 AUDIO
    TITLE "0:"
    INDEX 01 00:55:22
  TRACK 47 AUDIO
    TITLE "3:cjc114_2053"
    INDEX 01 00:55:53
  TRACK 48 AUDIO
    TITLE "0:"
    INDEX 01 00:57:19
  TRACK 49 AUDIO
    TITLE "4:cjc114_2054"
    INDEX 01 00:57:48
  TRACK 50 AUDIO
    TITLE "0:"
    INDEX 01 01:01:27
  TRACK 51 AUDIO
    TITLE "2:cjc114_2055"
    INDEX 01 01:02:18
  TRACK 52 AUDIO
    TITLE "0:"
    INDEX 01 01:03:35
  TRACK 53 AUDIO
    TITLE "3:cjc114_2056"
    INDEX 01 01:03:63
  TRACK 54 AUDIO
    TITLE "0:"
    INDEX 01 01:05:11
  TRACK 55 AUDIO
    TITLE "4:cjc114_2057"
    INDEX 01 01:05:38
  TRACK 56 AUDIO
    TITLE "0:"
    INDEX 01 01:09:12
  TRACK 57 AUDIO
    TITLE "2:cjc114_2058"
    INDEX 01 01:09:67
  TRACK 58 AUDIO
    TITLE "0:"
    INDEX 01 01:11:03
  TRACK 59 AUDIO
    TITLE "3:cjc114_2059"
    INDEX 01 01:11:33
  TRACK 60 AUDIO
    TITLE "0:"
    INDEX 01 01:12:68
  TRACK 61 AUDIO
    TITLE "4:cjc114_2060"
    INDEX 01 01:13:22
  TRACK 62 AUDIO
    TITLE "0:"
    INDEX 01 01:16:42
  TRACK 63 AUDIO
    TITLE "2:cjc114_2061"
    INDEX 01 01:17:20
  TRACK 64 AUDIO
    TITLE "0:"
    INDEX 01 01:18:23
  TRACK 65 AUDIO
    TITLE "3:cjc114_2062"
    INDEX 01 01:18:53
  TRACK 66 AUDIO
    TITLE "0:"
    INDEX 01 01:20:12
  TRACK 67 AUDIO
    TITLE "4:cjc114_2063"
    INDEX 01 01:20:40
  TRACK 68 AUDIO
    TITLE "0:"
    INDEX 01 01:24:00
  TRACK 69 AUDIO
    TITLE "2:cjc114_2064"
    INDEX 01 01:24:53
  TRACK 70 AUDIO
    TITLE "0:"
    INDEX 01 01:25:62
  TRACK 71 AUDIO
    TITLE "3:cjc114_2065"
    INDEX 01 01:26:19
  TRACK 72 AUDIO
    TITLE "0:"
    INDEX 01 01:27:42
  TRACK 73 AUDIO
    TITLE "4:cjc114_2066"
    INDEX 01 01:27:71
  TRACK 74 AUDIO
    TITLE "0:"
    INDEX 01 01:31:10
  TRACK 75 AUDIO
    TITLE "2:cjc114_2067"
    INDEX 01 01:31:63
  TRACK 76 AUDIO
    TITLE "0:"
    INDEX 01 01:32:64
  TRACK 77 AUDIO
    TITLE "3:cjc114_2068"
    INDEX 01 01:33:17
  TRACK 78 AUDIO
    TITLE "0:"
    INDEX 01 01:34:54
  TRACK 79 AUDIO
    TITLE "4:cjc114_2069"
    INDEX 01 01:35:06
  TRACK 80 AUDIO
    TITLE "0:"
    INDEX 01 01:39:15
